<svg width="20" height="18" viewBox="0 0 20 18" fill="none" xmlns="http://www.w3.org/2000/svg">
<path d="M10.8658 0.329505C10.4265 -0.109835 9.71415 -0.109835 9.27481 0.329505C8.83547 0.768845 8.83547 1.48116 9.27481 1.9205L15.1834 7.82912L1.12133 7.87501C0.500012 7.87703 -0.00202111 8.38235 6.11797e-06 9.00367C0.00203335 9.62499 0.507354 10.127 1.12867 10.125L15.1657 10.0792L9.27481 15.9701C8.83547 16.4094 8.83547 17.1218 9.27481 17.5611C9.71415 18.0004 10.4265 18.0004 10.8658 17.5611L18.6861 9.7408C18.9027 9.52422 19.0125 9.24132 19.0155 8.95748C19.0157 8.9458 19.0156 8.93412 19.0154 8.92245C19.0125 8.77755 18.9822 8.63941 18.9295 8.51297C18.877 8.38649 18.8003 8.26766 18.6995 8.16348" fill="#000212"/>
</svg>
