<svg width="22" height="21" viewBox="0 0 22 21" fill="none" xmlns="http://www.w3.org/2000/svg">
<path d="M1.93166 13.3139L2.4296 13.3592L2.52014 12.3633L2.02219 12.318L1.93166 13.3139ZM2.02219 11.1655L2.52014 11.1203L2.4296 10.1244L1.93166 10.1696L2.02219 11.1655ZM20.0683 10.1696L19.5704 10.1244L19.4799 11.1203L19.9778 11.1655L20.0683 10.1696ZM19.9778 12.318L19.4799 12.3633L19.5704 13.3592L20.0683 13.3139L19.9778 12.318ZM8.54782 12.8888C8.29143 12.7862 8.00044 12.9109 7.89789 13.1673C7.79533 13.4237 7.92004 13.7147 8.17643 13.8173L8.54782 12.8888ZM13.9187 13.8173C14.1751 13.7147 14.2998 13.4237 14.1972 13.1673C14.0947 12.9109 13.8037 12.7862 13.5473 12.8888L13.9187 13.8173ZM8.15 17.6126L8.65 17.6126L8.65 16.6126L8.15 16.6126L8.15 17.6126ZM5.15035 17.1126L5.15035 16.6126H5.15035V17.1126ZM15.017 20.1342L15.2787 19.7082L15.2555 19.6939L15.2309 19.6823L15.017 20.1342ZM2.02219 12.318C1.32594 12.2547 1.32594 11.2288 2.02219 11.1655L1.93166 10.1696C0.0227809 10.3432 0.022781 13.1404 1.93166 13.3139L2.02219 12.318ZM19.9778 11.1655C20.6741 11.2288 20.6741 12.2547 19.9778 12.318L20.0683 13.3139C21.9772 13.1404 21.9772 10.3432 20.0683 10.1696L19.9778 11.1655ZM8.17643 13.8173C10.0195 14.5545 12.0756 14.5545 13.9187 13.8173L13.5473 12.8888C11.9426 13.5307 10.1525 13.5307 8.54782 12.8888L8.17643 13.8173ZM10.5476 4.22253V6.37088H11.5476V4.22253H10.5476ZM12.1588 2.61126C12.1588 3.225 11.6613 3.72253 11.0476 3.72253V4.72253C12.2136 4.72253 13.1588 3.77728 13.1588 2.61126H12.1588ZM11.0476 3.72253C10.4338 3.72253 9.9363 3.225 9.9363 2.61126H8.9363C8.9363 3.77728 9.88155 4.72253 11.0476 4.72253V3.72253ZM9.9363 2.61126C9.9363 1.99753 10.4338 1.5 11.0476 1.5V0.5C9.88155 0.5 8.9363 1.44525 8.9363 2.61126H9.9363ZM11.0476 1.5C11.6613 1.5 12.1588 1.99753 12.1588 2.61126H13.1588C13.1588 1.44525 12.2136 0.5 11.0476 0.5V1.5ZM5.15035 6.87088H16.9663V5.87088H5.15035V6.87088ZM18.6146 8.51924V14.9643H19.6146V8.51924H18.6146ZM3.50199 14.9643V8.51924H2.50199V14.9643H3.50199ZM8.15 16.6126L5.15035 16.6126L5.15035 17.6126L8.15 17.6126L8.15 16.6126ZM16.9663 16.6126H15.8191V17.6126H16.9663V16.6126ZM2.50199 14.9643C2.50199 16.4269 3.6877 17.6126 5.15035 17.6126V16.6126C4.23999 16.6126 3.50199 15.8747 3.50199 14.9643H2.50199ZM18.6146 14.9643C18.6146 15.8747 17.8766 16.6126 16.9663 16.6126V17.6126C18.4289 17.6126 19.6146 16.4269 19.6146 14.9643H18.6146ZM16.9663 6.87088C17.8766 6.87088 18.6146 7.60888 18.6146 8.51924H19.6146C19.6146 7.05659 18.4289 5.87088 16.9663 5.87088V6.87088ZM5.15035 5.87088C3.6877 5.87088 2.50199 7.05659 2.50199 8.51924H3.50199C3.50199 7.60888 4.23999 6.87088 5.15035 6.87088V5.87088ZM8.28611 17.5019L14.8032 20.5862L15.2309 19.6823L8.71389 16.5981L8.28611 17.5019ZM15.8443 19.9512V16.4883H14.8443V19.9512H15.8443ZM14.7554 20.5603C15.2317 20.8528 15.8443 20.5101 15.8443 19.9512H14.8443C14.8443 19.7282 15.0887 19.5915 15.2787 19.7082L14.7554 20.5603ZM14.3072 10.1305C14.3072 10.4476 14.0501 10.7047 13.733 10.7047V11.7047C14.6024 11.7047 15.3072 10.9999 15.3072 10.1305H14.3072ZM13.733 10.7047C13.4159 10.7047 13.1588 10.4476 13.1588 10.1305H12.1588C12.1588 10.9999 12.8636 11.7047 13.733 11.7047V10.7047ZM13.1588 10.1305C13.1588 9.81339 13.4159 9.55632 13.733 9.55632V8.55632C12.8636 8.55632 12.1588 9.26111 12.1588 10.1305H13.1588ZM13.733 9.55632C14.0501 9.55632 14.3072 9.81339 14.3072 10.1305H15.3072C15.3072 9.26111 14.6024 8.55632 13.733 8.55632V9.55632ZM8.9363 10.1305C8.9363 10.4476 8.67923 10.7047 8.36212 10.7047V11.7047C9.23152 11.7047 9.9363 10.9999 9.9363 10.1305H8.9363ZM8.36212 10.7047C8.04502 10.7047 7.78795 10.4476 7.78795 10.1305H6.78795C6.78795 10.9999 7.49273 11.7047 8.36212 11.7047V10.7047ZM7.78795 10.1305C7.78795 9.81339 8.04502 9.55632 8.36212 9.55632V8.55632C7.49273 8.55632 6.78795 9.26111 6.78795 10.1305H7.78795ZM8.36212 9.55632C8.67923 9.55632 8.9363 9.81339 8.9363 10.1305H9.9363C9.9363 9.26111 9.23152 8.55632 8.36212 8.55632V9.55632Z" fill="#3D3DB8"/>
</svg>
