<svg width="23" height="22" viewBox="0 0 23 22" fill="none" xmlns="http://www.w3.org/2000/svg">
<path d="M20.25 10.625C20.25 15.9407 15.9407 20.25 10.625 20.25C9.20913 20.25 5.82002 21.4006 4.60937 20.8516C3.4664 20.3332 4.48736 18.1417 3.63544 17.2422C2.0019 15.5173 1 13.1882 1 10.625C1 5.30926 5.30926 1 10.625 1" stroke="#3D3DB8"/>
<path d="M19.374 1.50046L19.3744 1.50003C19.3745 1.50004 19.3745 1.50004 19.3744 1.50003L19.3753 1.49919C19.3753 1.49912 19.3753 1.49913 19.3753 1.49917C19.3752 1.49918 19.3752 1.49919 19.3752 1.49919C19.375 1.49932 19.3746 1.49965 19.374 1.4999C19.3737 1.50001 19.3736 1.50004 19.3736 1.50004L19.374 1.50046ZM19.374 1.50046L19.376 1.50244L21.5453 3.67175L21.8989 3.31819M19.374 1.50046L19.3719 1.50257L19.3719 1.50255L13.287 7.58391M21.8989 3.31819L19.7296 1.14889C19.5346 0.95037 19.2134 0.95037 19.0185 1.14889L12.9329 7.23088M21.8989 3.31819L21.5453 3.67175C21.5465 3.67293 21.547 3.67372 21.5473 3.67404L21.5476 3.67464L21.5477 3.67553L21.5476 3.67642L21.5473 3.67702C21.547 3.67734 21.5465 3.67813 21.5453 3.67932L21.8989 4.03287L21.5453 3.67932L15.4634 9.76117C15.4637 9.76091 15.4617 9.76264 15.4573 9.76329L15.4591 9.76306L15.5209 10.2592L15.4569 9.76335L12.9379 10.0769M21.8989 3.31819L12.93 10.0686M13.287 7.58391C13.287 7.58384 13.287 7.58379 13.2871 7.58377C13.2871 7.58367 13.287 7.58391 13.2864 7.58443M13.287 7.58391L13.2864 7.58443M13.287 7.58391C13.2867 7.58425 13.2861 7.58509 13.2854 7.58654C13.2842 7.58895 13.283 7.59208 13.2822 7.59565M13.2864 7.58443L12.9329 7.23088M13.2864 7.58443L13.2863 7.58453L12.9329 7.23088M12.9329 7.23088C12.8571 7.30668 12.8066 7.40774 12.7885 7.51603M12.7885 7.51603L13.2835 7.58653L13.2822 7.59565M12.7885 7.51603L12.4348 9.99935M12.7885 7.51603L13.2817 7.59823C13.2819 7.59734 13.282 7.59648 13.2822 7.59565M13.2822 7.59565L12.93 10.0685L12.4348 9.99935M12.4348 9.99935L12.9298 10.0699L12.93 10.0686M12.4348 9.99935C12.4131 10.1546 12.4637 10.3134 12.5756 10.4253C12.6694 10.5227 12.8029 10.5769 12.9365 10.5769C12.9582 10.5769 12.9762 10.5769 12.9979 10.5733L12.93 10.0686M12.93 10.0686C12.9298 10.0703 12.9299 10.0718 12.9302 10.0728M12.9302 10.0728L12.9291 10.0717C12.93 10.0727 12.9304 10.0733 12.9304 10.0734C12.9304 10.0734 12.9304 10.0733 12.9303 10.0731C12.9303 10.073 12.9302 10.0729 12.9302 10.0728ZM12.9302 10.0728L12.9335 10.0761M12.9335 10.0761C12.9334 10.0761 12.9333 10.076 12.9332 10.076C12.9326 10.0757 12.9323 10.0756 12.9324 10.0756C12.9324 10.0756 12.9332 10.076 12.9345 10.0773L12.9258 10.0784L12.9218 10.079L12.9157 10.0801C12.9177 10.0797 12.9197 10.0794 12.9217 10.0791C12.9254 10.0786 12.929 10.0782 12.9324 10.0778C12.9333 10.0777 12.9341 10.0777 12.9349 10.0776C12.9351 10.0779 12.9354 10.0781 12.9357 10.0785L12.9358 10.0784L12.935 10.0776C12.9354 10.0776 12.9358 10.0775 12.9362 10.0775C12.9363 10.0775 12.9364 10.0775 12.9365 10.0775C12.9398 10.0772 12.9425 10.077 12.9445 10.0769C12.947 10.0768 12.948 10.0768 12.9466 10.0768L12.9379 10.0769M12.9335 10.0761L12.9347 10.0773L12.9361 10.0771L12.9365 10.077L12.9379 10.0769M12.9335 10.0761C12.9349 10.0767 12.9361 10.0768 12.9364 10.0769C12.9365 10.0769 12.9365 10.0769 12.9365 10.0769L12.9379 10.0769M15.2898 9.77369L15.4605 9.75263L15.5821 9.63101L21.184 4.02909L21.5376 3.67553L21.184 3.32198L19.7294 1.86736L19.3758 1.5138L19.0223 1.86736L13.4167 7.47289L13.299 7.59062L13.2754 7.75543L13.0371 9.41579L12.9443 10.0631L13.5933 9.98304L15.2898 9.77369Z" fill="#3D3DB8" stroke="#3D3DB8"/>
<path d="M12.5314 14.8361C12.5314 14.8922 12.4859 14.9376 12.4298 14.9376H8.82043C8.76433 14.9376 8.71887 14.8922 8.71887 14.8361C8.71887 14.78 8.76433 14.7345 8.82043 14.7345H12.4298C12.4859 14.7345 12.5314 14.78 12.5314 14.8361Z" fill="#3D3DB8" stroke="#3D3DB8"/>
<path d="M6.35766 7.70173L6.35765 7.70172C6.31101 7.67063 6.29838 7.6076 6.32951 7.5609C6.3606 7.51426 6.42362 7.50162 6.47032 7.53275C6.47032 7.53275 6.47032 7.53275 6.47033 7.53275L7.67572 8.33635L7.67573 8.33635C8.45033 8.85275 8.45033 9.991 7.67573 10.5074L7.67572 10.5074L6.47033 11.311C6.47032 11.311 6.47032 11.311 6.47032 11.311C6.42362 11.3421 6.3606 11.3295 6.32951 11.2828C6.29837 11.2361 6.31101 11.1731 6.35765 11.142L6.35766 11.142L7.56305 10.3384C7.56306 10.3384 7.56306 10.3384 7.56307 10.3384C8.2171 9.90241 8.2171 8.94133 7.56307 8.50533C7.56306 8.50533 7.56306 8.50533 7.56305 8.50532L6.35766 7.70173Z" fill="#3D3DB8" stroke="#3D3DB8"/>
<line x1="18.1972" y1="3.05264" x2="19.8987" y2="4.75411" stroke="#3D3DB8"/>
</svg>
