<svg width="22" height="22" viewBox="0 0 22 22" fill="none" xmlns="http://www.w3.org/2000/svg">
<path d="M8.5 1V7.0882C8.5 7.16254 8.57823 7.21088 8.64472 7.17764L11 6L13.3553 7.17764C13.4218 7.21088 13.5 7.16254 13.5 7.0882V1M3.5 21H18.5C19.8807 21 21 19.8807 21 18.5V3.5C21 2.11929 19.8807 1 18.5 1H3.5C2.11929 1 1 2.11929 1 3.5V18.5C1 19.8807 2.11929 21 3.5 21ZM9.89364 12.6094L8.04544 13.1542C8.03702 13.1566 8.03371 13.1668 8.03907 13.1738L9.21406 14.7009C9.21581 14.7032 9.21673 14.706 9.21665 14.7089L9.16367 16.6349C9.16343 16.6437 9.17208 16.65 9.18036 16.6471L10.9958 16.0015C10.9985 16.0005 11.0015 16.0005 11.0042 16.0015L12.8196 16.6471C12.8279 16.65 12.8366 16.6437 12.8363 16.6349L12.7834 14.7089C12.7833 14.706 12.7842 14.7032 12.7859 14.7009L13.9609 13.1738C13.9663 13.1668 13.963 13.1566 13.9546 13.1542L12.1064 12.6094C12.1036 12.6085 12.1012 12.6068 12.0996 12.6044L11.0103 11.015C11.0053 11.0078 10.9947 11.0078 10.9897 11.015L9.90042 12.6044C9.89879 12.6068 9.8964 12.6085 9.89364 12.6094Z" stroke="#3D3DB8"/>
</svg>
