<svg width="24" height="24" viewBox="0 0 24 24" fill="none" xmlns="http://www.w3.org/2000/svg">
<path fill-rule="evenodd" clip-rule="evenodd" d="M6.54122 8.98863C6.54122 5.9738 8.98522 3.5298 12 3.5298C13.6981 3.5298 15.2155 4.30487 16.2172 5.52218C15.8264 5.44992 15.4235 5.41215 15.0118 5.41215C13.0365 5.41215 11.4353 7.01338 11.4353 8.98861C11.4353 8.99184 11.4353 8.99509 11.4353 8.99835C11.4301 10.3454 10.3365 11.4357 8.98827 11.4357C7.63679 11.4357 6.54122 10.3401 6.54122 8.98863ZM12.5647 8.99835C12.5647 8.99509 12.5647 8.99186 12.5647 8.98863C12.5647 7.63716 13.6603 6.54156 15.0118 6.54156C18.0266 6.54156 20.4706 8.98556 20.4706 12.0004C20.4706 13.6984 19.6955 15.2158 18.4783 16.2175C18.5505 15.8267 18.5883 15.4239 18.5883 15.0121C18.5883 13.0369 16.987 11.4357 15.0118 11.4357C13.6636 11.4357 12.57 10.3453 12.5647 8.99835ZM12 10.9183C11.7215 11.3521 11.3517 11.7219 10.9179 12.0004C11.3517 12.2789 11.7215 12.6487 12 13.0825C12.2786 12.6487 12.6483 12.2789 13.0822 12.0004C12.6483 11.7219 12.2786 11.3521 12 10.9183ZM8.98824 12.5651C7.01302 12.5651 5.4118 10.9638 5.4118 8.98863C5.4118 8.5769 5.44957 8.17399 5.52183 7.78317C4.30453 8.78489 3.52941 10.3023 3.52941 12.0004C3.52941 15.0152 5.97342 17.4592 8.98824 17.4592C10.3397 17.4592 11.4353 16.3636 11.4353 15.0122C11.4353 13.6607 10.3397 12.5651 8.98824 12.5651ZM6.09641 6.06099C7.17436 3.89142 9.41308 2.40039 12 2.40039C14.4393 2.40039 16.5682 3.72634 17.7065 5.69409L17.9394 6.09673C20.109 7.17471 21.6 9.41343 21.6 12.0004C21.6 14.4397 20.2741 16.5685 18.3063 17.7068L17.9037 17.9397C16.8258 20.1093 14.587 21.6004 12 21.6004C9.56074 21.6004 7.43185 20.2744 6.29358 18.3067L6.06067 17.9041C3.89107 16.8261 2.4 14.5874 2.4 12.0004C2.4 9.56109 3.72595 7.43221 5.69371 6.29392L6.09641 6.06099ZM12 20.471C10.302 20.471 8.78457 19.6959 7.78287 18.4786C8.17365 18.5509 8.57653 18.5886 8.98824 18.5886C10.9635 18.5886 12.5647 16.9874 12.5647 15.0122C12.5647 13.6607 13.6603 12.5651 15.0118 12.5651C16.3633 12.5651 17.4589 13.6607 17.4589 15.0121C17.4589 18.027 15.0149 20.471 12 20.471Z" fill="#3D3DB8"/>
</svg>
