<svg width="18" height="20" viewBox="0 0 18 20" fill="none" xmlns="http://www.w3.org/2000/svg">
<path d="M1.47602 0.813358L1.47527 0.812923C1.25705 0.686117 0.963575 0.75248 0.818861 1.02115C0.773876 1.10759 0.75 1.20427 0.75 1.30302V18.6986C0.75 19.033 1.00194 19.2494 1.24586 19.25C1.32705 19.2496 1.40574 19.2279 1.47359 19.1882L1.47602 19.1868L16.4821 10.4899L1.47602 0.813358ZM1.47602 0.813358L16.4818 9.51009C16.5617 9.55651 16.6312 9.62759 16.6792 9.71862L16.6809 9.72176M1.47602 0.813358L16.6809 9.72176M16.6809 9.72176C16.8326 10.006 16.722 10.3505 16.4824 10.4898L16.6809 9.72176Z" stroke="#3D3DB8" stroke-width="1.5"/>
</svg>
