<svg width="20" height="20" viewBox="0 0 20 20" fill="none" xmlns="http://www.w3.org/2000/svg">
<path fill-rule="evenodd" clip-rule="evenodd" d="M3.9 17.925L5.875 15.35C6.35 15.7 6.85 16 7.4 16.225L6.15 19.225C5.35 18.9 4.6 18.475 3.9 17.925Z" fill="#3D3DB8"/>
<path d="M9.125 16.7C9.425 16.75 9.7 16.75 10 16.75C10.3 16.75 10.6 16.725 10.875 16.7L11.3 19.925C10.875 19.975 10.45 20 10 20C9.55 20 9.125 19.975 8.7 19.925L9.125 16.7Z" fill="#3D3DB8"/>
<path d="M12.575 16.25C13.125 16.025 13.625 15.725 14.1 15.375L16.075 17.95C15.375 18.475 14.625 18.925 13.825 19.25L12.575 16.25Z" fill="#3D3DB8"/>
<path d="M15.35 14.1C15.7 13.625 16 13.125 16.225 12.575L19.225 13.825C18.9 14.65 18.45 15.4 17.925 16.075L15.35 14.1Z" fill="#3D3DB8"/>
<path d="M16.7 10.875C16.75 10.575 16.75 10.3 16.75 10C16.75 9.7 16.725 9.4 16.7 9.125L19.925 8.7C19.975 9.125 20 9.575 20 10C20 10.425 19.975 10.875 19.925 11.3L16.7 10.875Z" fill="#3D3DB8"/>
<path d="M16.25 7.425C16.025 6.875 15.725 6.375 15.375 5.9L17.95 3.925C18.475 4.625 18.925 5.375 19.25 6.175L16.25 7.425Z" fill="#3D3DB8"/>
<path d="M14.1 4.65C13.625 4.3 13.125 4 12.575 3.775L13.825 0.775C14.65 1.1 15.4 1.55 16.075 2.075L14.1 4.65Z" fill="#3D3DB8"/>
<path d="M10.875 3.3C10.6 3.275 10.3 3.25 10 3.25C9.7 3.25 9.4 3.275 9.125 3.3L8.7 0.075C9.125 0.025 9.55 0 10 0C10.45 0 10.875 0.025 11.3 0.075L10.875 3.3Z" fill="#3D3DB8"/>
<path d="M3.75 12.575C3.975 13.125 4.275 13.625 4.625 14.1L2.075 16.1C1.55 15.4 1.1 14.65 0.775 13.85L3.75 12.575Z" fill="#3D3DB8"/>
<path d="M7.425 3.75C6.875 3.975 6.375 4.275 5.9 4.625L3.9 2.075C4.6 1.55 5.35 1.1 6.15 0.775L7.425 3.75Z" fill="#3D3DB8"/>
<path d="M4.65 5.9C4.3 6.375 4 6.875 3.775 7.425L0.775 6.175C1.1 5.35 1.55 4.6 2.075 3.925L4.65 5.9Z" fill="#3D3DB8"/>
<path d="M0.075 8.7C0.025 9.125 0 9.55 0 10C0 10.45 0.025 10.875 0.075 11.3L3.3 10.875C3.275 10.6 3.25 10.3 3.25 10C3.25 9.7 3.275 9.4 3.3 9.125L0.075 8.7Z" fill="#3D3DB8"/>
<path d="M13.4 7.05C13.375 7.025 13.325 7 13.3 6.975C13.25 6.95 13.225 6.95 13.175 6.95C13.125 6.95 13.075 6.95 13.05 6.975C13 7 12.975 7.025 12.95 7.05L8.625 11.3C8.55 11.35 8.475 11.4 8.375 11.4C8.275 11.4 8.2 11.375 8.125 11.3L7.075 10.25C7 10.2 6.925 10.15 6.825 10.15C6.725 10.15 6.65 10.175 6.575 10.25L5.925 10.9C5.875 10.975 5.825 11.05 5.825 11.15C5.825 11.25 5.85 11.325 5.925 11.4L8.125 13.575C8.2 13.625 8.275 13.675 8.375 13.675C8.475 13.675 8.55 13.65 8.625 13.575L14.075 8.2C14.1 8.175 14.125 8.125 14.15 8.1C14.175 8.05 14.175 8.025 14.175 7.975C14.175 7.925 14.175 7.875 14.15 7.85C14.125 7.8 14.1 7.775 14.075 7.75L13.4 7.05Z" fill="#3D3DB8"/>
</svg>
