<svg width="20" height="20" viewBox="0 0 20 20" fill="none" xmlns="http://www.w3.org/2000/svg">
<path fill-rule="evenodd" clip-rule="evenodd" d="M14.6548 15.9805C13.109 17.2346 11.1388 17.9861 8.99304 17.9861C4.02632 17.9861 0 13.9598 0 8.99304C0 4.02632 4.02632 0 8.99304 0C13.9598 0 17.9861 4.02632 17.9861 8.99304C17.9861 11.1388 17.2346 13.109 15.9805 14.6548L19.7255 18.3998C20.0915 18.7659 20.0915 19.3594 19.7255 19.7255C19.3594 20.0915 18.7659 20.0915 18.3998 19.7255L14.6548 15.9805ZM1.87473 8.99304C1.87473 5.06171 5.06171 1.87473 8.99304 1.87473C12.9244 1.87473 16.1114 5.06171 16.1114 8.99304C16.1114 10.9128 15.3514 12.655 14.116 13.9353C14.0824 13.9608 14.0502 13.9889 14.0196 14.0195C13.9889 14.0502 13.9609 14.0824 13.9353 14.1159C12.655 15.3514 10.9128 16.1114 8.99304 16.1114C5.06171 16.1114 1.87473 12.9244 1.87473 8.99304Z" fill="#3D3DB8"/>
</svg>
