<svg width="20" height="20" viewBox="0 0 20 20" fill="none" xmlns="http://www.w3.org/2000/svg">
<path d="M7.85465 0C7.4513 0.00271053 7.10193 0.391358 7.05851 0.699013L6.85739 2.48355C6.16565 2.76286 5.52971 3.12696 4.94668 3.56908L3.27063 2.84539C2.91126 2.68979 2.44397 2.84013 2.24826 3.17434L0.102914 6.82566C-0.0917497 7.15747 0.00747295 7.62547 0.320774 7.85362L1.7957 8.91447C1.74791 9.27388 1.68677 9.63232 1.68677 10C1.68677 10.3667 1.74818 10.7187 1.7957 11.0773L0.320774 12.1382C0.00331635 12.3668 -0.0964962 12.841 0.102914 13.1743L2.24826 16.8257C2.44663 17.1571 2.91316 17.3034 3.27063 17.1464L4.94668 16.4227C5.5307 16.8659 6.1642 17.2367 6.85739 17.5164L7.05851 19.2928C7.09938 19.6753 7.46275 19.9981 7.85465 20H12.1454C12.5373 19.9974 12.9006 19.6753 12.9415 19.2928L13.1426 17.5164C13.8358 17.2367 14.4693 16.8659 15.0533 16.4227L16.7294 17.1464C17.0868 17.3034 17.5534 17.1569 17.7517 16.8257L19.8971 13.1743C20.0965 12.841 19.9967 12.3668 19.6792 12.1382L18.2043 11.0773C18.2518 10.7187 18.3132 10.3667 18.3132 10C18.3132 9.63232 18.2521 9.27388 18.2043 8.91447L19.6792 7.85362C19.9925 7.62547 20.0918 7.15747 19.8971 6.82566L17.7517 3.17434C17.556 2.84012 17.0887 2.68979 16.7294 2.84539L15.0533 3.56908C14.4703 3.12696 13.8344 2.76286 13.1426 2.48355L12.9415 0.699013C12.8968 0.319397 12.5348 0.00149211 12.1454 0H7.85465ZM8.56696 1.57895H11.433L11.6006 3.10033C11.6314 3.39757 11.8494 3.66836 12.137 3.76645C12.9884 4.04823 13.7727 4.4943 14.4332 5.06579C14.6632 5.26089 15.0104 5.31101 15.288 5.18914L16.721 4.57237L18.1456 6.99836L16.8886 7.90296C16.6448 8.0801 16.519 8.40059 16.5785 8.69243C16.6631 9.10736 16.7042 9.55134 16.7042 10C16.7042 10.4486 16.6631 10.8844 16.5785 11.2993C16.519 11.5912 16.6448 11.9117 16.8886 12.0888L18.1456 12.9934L16.721 15.4194L15.288 14.8026C15.0089 14.6829 14.6615 14.7364 14.4332 14.9342C13.7727 15.5057 12.9884 15.9518 12.137 16.2336C11.8517 16.3304 11.6344 16.5971 11.6006 16.8914L11.4246 18.4211H8.57536L8.39936 16.8914C8.36565 16.5971 8.1483 16.3304 7.86302 16.2336C7.01161 15.9518 6.2273 15.5057 5.56685 14.9342C5.33853 14.7364 4.99112 14.6829 4.71204 14.8026L3.27902 15.4194L1.85438 12.9934L3.11142 12.0888C3.35516 11.9117 3.48101 11.5912 3.4215 11.2993C3.33692 10.8844 3.29578 10.4486 3.29578 10C3.29578 9.55134 3.33692 9.10736 3.4215 8.69243C3.48101 8.40059 3.35516 8.0801 3.11142 7.90296L1.85438 6.99836L3.27902 4.57237L4.71204 5.18914C4.98956 5.31101 5.33682 5.26089 5.56685 5.06579C6.2273 4.4943 7.01156 4.04822 7.86302 3.76645C8.15063 3.66836 8.36865 3.39757 8.39936 3.10033L8.56696 1.57895ZM10 5C7.19555 5 4.9048 7.2479 4.9048 10C4.9048 12.7521 7.19555 15 10 15C12.8045 15 15.0952 12.7521 15.0952 10C15.0952 7.24791 12.8045 5 10 5ZM10 6.57895C11.9349 6.57895 13.4862 8.10122 13.4862 10C13.4862 11.8987 11.9349 13.4211 10 13.4211C8.06511 13.4211 6.51381 11.8987 6.51381 10C6.51381 8.10123 8.06511 6.57895 10 6.57895Z" fill="#3D3DB8"/>
</svg>
